# xmcd
#
# Track frame offsets:
#	150
#	13925
#	26352
#	38752
#	49937
#	64270
#	77637
#	86137
#	98112
#	112220
#	125045
#	135940
#	150142
#	160882
#	172490
#	180822
#	193397
#	207092
#	222810
#	235872
#	248300
#
# Disc length: 3469 seconds
#
# Revision: 4
# Processed by: cddbd v1.5.2PL0 Copyright (c) Steve Scherf et al.
# Submitted via: EasyCDDAExtractor 16.0.6.1
#
DISCID=180d8b15
DTITLE=Various  - Νέο Κύμα - CD2/2
DYEAR=1995
DGENRE=Ελληνικά
TTITLE0=Παππάς Λάκης - Ελα Μαζί Μου
TTITLE1=Σαββόπουλος Διονύσης - Μια Θάλασσα Μικρή
TTITLE2=Αστεριάδη Πόπη - Μιά Μέρα
TTITLE3=Αρλέτα - Μιά Φορά Θυμάμαι
TTITLE4=Ζωγράφος Γιώργος - Τα Γιορτινά Σου Φόρεσε
TTITLE5=Τα Ανάκαρα - 12 Μήνες Στο Στρατό
TTITLE6=Ρωμανός Γιώργος - Το Ρολόι
TTITLE7=Χωματά Καίτη - Το Χριστινάκι
TTITLE8=Αστεριάδη Πόπη - Η Μικρή Νανώ
TTITLE9=Ζωγράφος Γιώργος - Μικρό Παιδί
TTITLE10=Αρλέτα - Τα Μικρά Παιδιά
TTITLE11=Βιολάρης Μιχάλης - Τρείς Νέοι
TTITLE12=Πουλόπουλος Γιάννης - Καράβια Αλήτες
TTITLE13=Χωματά-Βιολάρης - Τα Καραβάκια
TTITLE14=Σαββόπουλος Διονύσης - Οι Μάγοι
TTITLE15=Αρλέτα - Φώναξε Με
TTITLE16=Ζωγράφος Γιώργος - Σαν Ενα Αστέρι
TTITLE17=Παππάς Λάκης - Κι Υστερα Μου Μιλάς
TTITLE18=Αρλέτα - Τις Αδειες Νύχτες
TTITLE19=Αστεριάδη Πόπη - Πάει Κι Αυτή Η Κυριακή
TTITLE20=Σαββόπουλος Διονύσης - Οι Παλιοί Μας Φίλοι
EXTD=
EXTT0=
EXTT1=
EXTT2=
EXTT3=
EXTT4=
EXTT5=
EXTT6=
EXTT7=
EXTT8=
EXTT9=
EXTT10=
EXTT11=
EXTT12=
EXTT13=
EXTT14=
EXTT15=
EXTT16=
EXTT17=
EXTT18=
EXTT19=
EXTT20=
PLAYORDER=
